<mxfile host="app.diagrams.net" modified="2022-08-15T07:13:47.158Z" agent="5.0 (Windows NT 10.0; Win64; x64) AppleWebKit/537.36 (KHTML, like Gecko) Chrome/103.0.0.0 Safari/537.36" etag="qHvo8AD_vupcuHfId_Nk" version="20.2.2" type="github">
  <diagram id="2NR-QRxBcaR07NPv3wB8" name="第 1 页">
    <mxGraphModel dx="981" dy="526" grid="1" gridSize="10" guides="1" tooltips="1" connect="1" arrows="1" fold="1" page="1" pageScale="1" pageWidth="827" pageHeight="1169" math="0" shadow="0">
      <root>
        <mxCell id="0" />
        <mxCell id="1" parent="0" />
        <mxCell id="S8xH9RBU_SRHQgKJHc0K-46" value="" style="rounded=0;whiteSpace=wrap;html=1;shadow=0;glass=0;dashed=1;labelBackgroundColor=none;sketch=0;fontColor=#333333;strokeColor=#666666;fillColor=#f5f5f5;" vertex="1" parent="1">
          <mxGeometry x="40" y="260" width="770" height="260" as="geometry" />
        </mxCell>
        <mxCell id="S8xH9RBU_SRHQgKJHc0K-15" value="" style="rounded=0;whiteSpace=wrap;html=1;labelBackgroundColor=default;sketch=0;fillColor=#f5f5f5;glass=0;shadow=0;dashed=1;strokeColor=#666666;fontColor=#333333;" vertex="1" parent="1">
          <mxGeometry x="40" y="60" width="560" height="180" as="geometry" />
        </mxCell>
        <mxCell id="S8xH9RBU_SRHQgKJHc0K-8" value="clang -target bpf" style="rounded=1;whiteSpace=wrap;html=1;labelBackgroundColor=none;sketch=0;fillColor=#e1d5e7;strokeColor=#9673a6;fontStyle=1" vertex="1" parent="1">
          <mxGeometry x="120" y="160" width="150" height="30" as="geometry" />
        </mxCell>
        <mxCell id="S8xH9RBU_SRHQgKJHc0K-10" value="" style="endArrow=classic;html=1;rounded=0;fontColor=default;exitX=0.5;exitY=1;exitDx=0;exitDy=0;entryX=0;entryY=0.5;entryDx=0;entryDy=0;" edge="1" parent="1" source="S8xH9RBU_SRHQgKJHc0K-5" target="S8xH9RBU_SRHQgKJHc0K-8">
          <mxGeometry width="50" height="50" relative="1" as="geometry">
            <mxPoint x="340" y="270" as="sourcePoint" />
            <mxPoint x="390" y="220" as="targetPoint" />
            <Array as="points">
              <mxPoint x="100" y="175" />
            </Array>
          </mxGeometry>
        </mxCell>
        <mxCell id="S8xH9RBU_SRHQgKJHc0K-5" value="eBPF 程序C源码" style="shape=image;html=1;verticalAlign=top;verticalLabelPosition=bottom;labelBackgroundColor=#ffffff;imageAspect=0;aspect=fixed;image=https://cdn4.iconfinder.com/data/icons/online-marketing-hand-drawn-vol-4/52/web__development__coding__script__service__code__developers-128.png;sketch=0;fontColor=default;fontStyle=1" vertex="1" parent="1">
          <mxGeometry x="80" y="80" width="40" height="40" as="geometry" />
        </mxCell>
        <mxCell id="S8xH9RBU_SRHQgKJHc0K-11" value="" style="endArrow=classic;html=1;rounded=0;fontColor=default;entryX=0;entryY=0.5;entryDx=0;entryDy=0;" edge="1" parent="1" target="S8xH9RBU_SRHQgKJHc0K-7">
          <mxGeometry width="50" height="50" relative="1" as="geometry">
            <mxPoint x="180" y="160" as="sourcePoint" />
            <mxPoint x="230" y="110" as="targetPoint" />
            <Array as="points">
              <mxPoint x="180" y="100" />
            </Array>
          </mxGeometry>
        </mxCell>
        <mxCell id="S8xH9RBU_SRHQgKJHc0K-13" value="" style="endArrow=classic;html=1;rounded=0;fontColor=default;exitX=0.5;exitY=1;exitDx=0;exitDy=0;entryX=0;entryY=0.5;entryDx=0;entryDy=0;" edge="1" parent="1" source="S8xH9RBU_SRHQgKJHc0K-7" target="S8xH9RBU_SRHQgKJHc0K-12">
          <mxGeometry width="50" height="50" relative="1" as="geometry">
            <mxPoint x="340" y="270" as="sourcePoint" />
            <mxPoint x="390" y="220" as="targetPoint" />
            <Array as="points">
              <mxPoint x="290" y="180" />
            </Array>
          </mxGeometry>
        </mxCell>
        <mxCell id="S8xH9RBU_SRHQgKJHc0K-7" value="eBPF程序字节码" style="shape=image;html=1;verticalAlign=top;verticalLabelPosition=bottom;labelBackgroundColor=#ffffff;imageAspect=0;aspect=fixed;image=https://cdn4.iconfinder.com/data/icons/online-marketing-hand-drawn-vol-4/52/web__development__coding__script__service__code__developers-128.png;sketch=0;fontColor=default;fontStyle=1" vertex="1" parent="1">
          <mxGeometry x="270" y="80" width="40" height="40" as="geometry" />
        </mxCell>
        <mxCell id="S8xH9RBU_SRHQgKJHc0K-14" value="程序映射" style="rounded=1;whiteSpace=wrap;html=1;labelBackgroundColor=none;sketch=0;fillColor=#ffe6cc;strokeColor=#d79b00;fontStyle=1" vertex="1" parent="1">
          <mxGeometry x="480" y="160" width="80" height="40" as="geometry" />
        </mxCell>
        <mxCell id="S8xH9RBU_SRHQgKJHc0K-16" value="eBPF程序开发" style="text;html=1;strokeColor=none;fillColor=none;align=center;verticalAlign=middle;whiteSpace=wrap;rounded=0;labelBackgroundColor=default;sketch=0;fontColor=default;fontStyle=1" vertex="1" parent="1">
          <mxGeometry x="50" y="210" width="90" height="20" as="geometry" />
        </mxCell>
        <mxCell id="S8xH9RBU_SRHQgKJHc0K-18" value="" style="endArrow=none;html=1;rounded=0;fontColor=default;entryX=0.5;entryY=1;entryDx=0;entryDy=0;" edge="1" parent="1" target="S8xH9RBU_SRHQgKJHc0K-12">
          <mxGeometry width="50" height="50" relative="1" as="geometry">
            <mxPoint x="400" y="270" as="sourcePoint" />
            <mxPoint x="390" y="210" as="targetPoint" />
          </mxGeometry>
        </mxCell>
        <mxCell id="S8xH9RBU_SRHQgKJHc0K-19" value="" style="endArrow=none;html=1;rounded=0;fontColor=default;exitX=0.5;exitY=1;exitDx=0;exitDy=0;" edge="1" parent="1" source="S8xH9RBU_SRHQgKJHc0K-14">
          <mxGeometry width="50" height="50" relative="1" as="geometry">
            <mxPoint x="340" y="260" as="sourcePoint" />
            <mxPoint x="400" y="230" as="targetPoint" />
            <Array as="points">
              <mxPoint x="520" y="230" />
            </Array>
          </mxGeometry>
        </mxCell>
        <mxCell id="S8xH9RBU_SRHQgKJHc0K-20" value="" style="rounded=0;whiteSpace=wrap;html=1;shadow=0;glass=0;dashed=1;labelBackgroundColor=none;sketch=0;fillColor=#fff2cc;strokeColor=#d6b656;" vertex="1" parent="1">
          <mxGeometry x="80" y="370" width="720" height="110" as="geometry" />
        </mxCell>
        <mxCell id="S8xH9RBU_SRHQgKJHc0K-22" value="进程" style="rounded=1;whiteSpace=wrap;html=1;shadow=0;glass=0;labelBackgroundColor=none;sketch=0;fontColor=default;fillColor=default;gradientColor=none;fontStyle=1" vertex="1" parent="1">
          <mxGeometry x="640" y="160" width="120" height="60" as="geometry" />
        </mxCell>
        <mxCell id="S8xH9RBU_SRHQgKJHc0K-23" value="系统调用" style="rounded=1;whiteSpace=wrap;html=1;shadow=0;glass=0;labelBackgroundColor=none;sketch=0;fontColor=default;fillColor=default;gradientColor=none;fontStyle=1" vertex="1" parent="1">
          <mxGeometry x="200" y="330" width="120" height="40" as="geometry" />
        </mxCell>
        <mxCell id="S8xH9RBU_SRHQgKJHc0K-25" value="Linux 内核" style="text;html=1;strokeColor=none;fillColor=none;align=center;verticalAlign=middle;whiteSpace=wrap;rounded=0;labelBackgroundColor=none;sketch=0;fontColor=default;rotation=0;fontStyle=1" vertex="1" parent="1">
          <mxGeometry x="90" y="415" width="90" height="20" as="geometry" />
        </mxCell>
        <mxCell id="S8xH9RBU_SRHQgKJHc0K-26" value="" style="endArrow=none;html=1;rounded=0;fontColor=default;entryX=0.5;entryY=0;entryDx=0;entryDy=0;" edge="1" parent="1" target="S8xH9RBU_SRHQgKJHc0K-23">
          <mxGeometry width="50" height="50" relative="1" as="geometry">
            <mxPoint x="260" y="300" as="sourcePoint" />
            <mxPoint x="390" y="270" as="targetPoint" />
          </mxGeometry>
        </mxCell>
        <mxCell id="S8xH9RBU_SRHQgKJHc0K-27" value="eBPF 验证引擎" style="rounded=1;whiteSpace=wrap;html=1;shadow=0;glass=0;labelBackgroundColor=none;sketch=0;fontColor=default;fillColor=default;gradientColor=none;fontStyle=1" vertex="1" parent="1">
          <mxGeometry x="200" y="390" width="120" height="25" as="geometry" />
        </mxCell>
        <mxCell id="S8xH9RBU_SRHQgKJHc0K-28" value="eBPF 即时编译器" style="rounded=1;whiteSpace=wrap;html=1;shadow=0;glass=0;labelBackgroundColor=none;sketch=0;fontColor=default;fillColor=default;gradientColor=none;fontStyle=1" vertex="1" parent="1">
          <mxGeometry x="200" y="435" width="120" height="25" as="geometry" />
        </mxCell>
        <mxCell id="S8xH9RBU_SRHQgKJHc0K-29" value="套接字" style="rounded=1;whiteSpace=wrap;html=1;shadow=0;glass=0;labelBackgroundColor=none;sketch=0;fontColor=default;fillColor=default;gradientColor=none;fontStyle=1" vertex="1" parent="1">
          <mxGeometry x="640" y="400" width="120" height="25" as="geometry" />
        </mxCell>
        <mxCell id="S8xH9RBU_SRHQgKJHc0K-30" value="TCP/IP" style="rounded=1;whiteSpace=wrap;html=1;shadow=0;glass=0;labelBackgroundColor=none;sketch=0;fontColor=default;fillColor=default;gradientColor=none;fontStyle=1" vertex="1" parent="1">
          <mxGeometry x="640" y="440" width="120" height="25" as="geometry" />
        </mxCell>
        <mxCell id="S8xH9RBU_SRHQgKJHc0K-31" value="eBPF" style="rounded=1;whiteSpace=wrap;html=1;shadow=0;glass=0;labelBackgroundColor=none;sketch=0;fillColor=#fff2cc;strokeColor=#d6b656;fontStyle=1" vertex="1" parent="1">
          <mxGeometry x="620" y="402.5" width="50" height="20" as="geometry" />
        </mxCell>
        <mxCell id="S8xH9RBU_SRHQgKJHc0K-32" value="eBPF" style="rounded=1;whiteSpace=wrap;html=1;shadow=0;glass=0;labelBackgroundColor=none;sketch=0;fillColor=#fff2cc;strokeColor=#d6b656;fontStyle=1" vertex="1" parent="1">
          <mxGeometry x="660" y="370" width="80" height="20" as="geometry" />
        </mxCell>
        <mxCell id="S8xH9RBU_SRHQgKJHc0K-33" value="" style="endArrow=classic;html=1;rounded=0;fontColor=default;" edge="1" parent="1">
          <mxGeometry width="50" height="50" relative="1" as="geometry">
            <mxPoint x="681" y="220" as="sourcePoint" />
            <mxPoint x="680" y="400" as="targetPoint" />
          </mxGeometry>
        </mxCell>
        <mxCell id="S8xH9RBU_SRHQgKJHc0K-34" value="" style="endArrow=classic;html=1;rounded=0;fontColor=default;exitX=0.664;exitY=-0.102;exitDx=0;exitDy=0;entryX=0.67;entryY=1.026;entryDx=0;entryDy=0;exitPerimeter=0;entryPerimeter=0;" edge="1" parent="1" source="S8xH9RBU_SRHQgKJHc0K-29" target="S8xH9RBU_SRHQgKJHc0K-22">
          <mxGeometry width="50" height="50" relative="1" as="geometry">
            <mxPoint x="340" y="320" as="sourcePoint" />
            <mxPoint x="390" y="270" as="targetPoint" />
          </mxGeometry>
        </mxCell>
        <mxCell id="S8xH9RBU_SRHQgKJHc0K-24" value="系统调用" style="rounded=1;whiteSpace=wrap;html=1;shadow=0;glass=0;labelBackgroundColor=none;sketch=0;fontColor=default;fillColor=default;gradientColor=none;fontStyle=1" vertex="1" parent="1">
          <mxGeometry x="640" y="330" width="120" height="40" as="geometry" />
        </mxCell>
        <mxCell id="S8xH9RBU_SRHQgKJHc0K-12" value="程序" style="rounded=1;whiteSpace=wrap;html=1;labelBackgroundColor=none;sketch=0;fillColor=#ffe6cc;strokeColor=#d79b00;fontStyle=1" vertex="1" parent="1">
          <mxGeometry x="360" y="160" width="80" height="40" as="geometry" />
        </mxCell>
        <mxCell id="S8xH9RBU_SRHQgKJHc0K-17" value="eBPF go语言库" style="rounded=1;whiteSpace=wrap;html=1;labelBackgroundColor=none;sketch=0;fillColor=#ffe6cc;strokeColor=#d79b00;fontStyle=1" vertex="1" parent="1">
          <mxGeometry x="230" y="270" width="370" height="30" as="geometry" />
        </mxCell>
        <mxCell id="S8xH9RBU_SRHQgKJHc0K-35" value="" style="endArrow=classic;html=1;rounded=0;fontColor=default;exitX=1;exitY=0.5;exitDx=0;exitDy=0;entryX=0;entryY=0.75;entryDx=0;entryDy=0;" edge="1" parent="1" source="S8xH9RBU_SRHQgKJHc0K-28" target="S8xH9RBU_SRHQgKJHc0K-32">
          <mxGeometry width="50" height="50" relative="1" as="geometry">
            <mxPoint x="350" y="470" as="sourcePoint" />
            <mxPoint x="660" y="380" as="targetPoint" />
            <Array as="points">
              <mxPoint x="580" y="448" />
              <mxPoint x="580" y="385" />
            </Array>
          </mxGeometry>
        </mxCell>
        <mxCell id="S8xH9RBU_SRHQgKJHc0K-36" value="" style="endArrow=classic;html=1;rounded=0;fontColor=default;entryX=0;entryY=0.5;entryDx=0;entryDy=0;" edge="1" parent="1" target="S8xH9RBU_SRHQgKJHc0K-31">
          <mxGeometry width="50" height="50" relative="1" as="geometry">
            <mxPoint x="580" y="413" as="sourcePoint" />
            <mxPoint x="390" y="270" as="targetPoint" />
          </mxGeometry>
        </mxCell>
        <mxCell id="S8xH9RBU_SRHQgKJHc0K-39" value="eBPF&lt;br&gt;映射" style="shape=cylinder3;whiteSpace=wrap;html=1;boundedLbl=1;backgroundOutline=1;size=6.327586206896456;rounded=0;shadow=0;glass=0;labelBackgroundColor=none;sketch=0;fontColor=default;strokeColor=default;fillColor=default;gradientColor=none;fontStyle=1" vertex="1" parent="1">
          <mxGeometry x="440" y="372.5" width="50" height="67.5" as="geometry" />
        </mxCell>
        <mxCell id="S8xH9RBU_SRHQgKJHc0K-40" value="" style="endArrow=classic;startArrow=classic;html=1;rounded=0;fontColor=default;exitX=1;exitY=0.5;exitDx=0;exitDy=0;exitPerimeter=0;entryX=0;entryY=0.25;entryDx=0;entryDy=0;" edge="1" parent="1" source="S8xH9RBU_SRHQgKJHc0K-39" target="S8xH9RBU_SRHQgKJHc0K-32">
          <mxGeometry width="50" height="50" relative="1" as="geometry">
            <mxPoint x="340" y="310" as="sourcePoint" />
            <mxPoint x="390" y="260" as="targetPoint" />
            <Array as="points">
              <mxPoint x="570" y="406" />
              <mxPoint x="570" y="375" />
            </Array>
          </mxGeometry>
        </mxCell>
        <mxCell id="S8xH9RBU_SRHQgKJHc0K-41" value="" style="endArrow=classic;startArrow=classic;html=1;rounded=0;fontColor=default;exitX=0.5;exitY=0;exitDx=0;exitDy=0;exitPerimeter=0;" edge="1" parent="1" source="S8xH9RBU_SRHQgKJHc0K-39">
          <mxGeometry width="50" height="50" relative="1" as="geometry">
            <mxPoint x="340" y="310" as="sourcePoint" />
            <mxPoint x="465" y="300" as="targetPoint" />
          </mxGeometry>
        </mxCell>
        <mxCell id="S8xH9RBU_SRHQgKJHc0K-47" value="运行时" style="text;html=1;strokeColor=none;fillColor=none;align=center;verticalAlign=middle;whiteSpace=wrap;rounded=0;labelBackgroundColor=default;sketch=0;fontColor=default;fontStyle=1" vertex="1" parent="1">
          <mxGeometry x="50" y="490" width="50" height="20" as="geometry" />
        </mxCell>
      </root>
    </mxGraphModel>
  </diagram>
</mxfile>
